<?xml version="1.0" encoding="utf-8"?>
<!-- Generator: Adobe Illustrator 27.5.0, SVG Export Plug-In . SVG Version: 6.00 Build 0)  -->
<svg version="1.1" xmlns="http://www.w3.org/2000/svg" xmlns:xlink="http://www.w3.org/1999/xlink" x="0px" y="0px"
	 viewBox="0 0 500 500" style="enable-background:new 0 0 500 500;" xml:space="preserve">
<!-- Background removed -->
<g id="OBJECTS">
	<g>
		<g>
			<path style="fill:#74A4E4;" d="M346.929,195.036c0,0-11.495,3.113-20.353,8.996c-6.818,4.528,0.406,5.072,0.879,6.965
				c0.107,0.426-3.295,1.124-2.164,3.787c5.8,13.659,12.792,28.878,12.792,28.878s-3.184-0.411-5.233-1.526
				c-2.049-1.116-16.553-34.384-16.959-37.63s12.983-14.2,12.983-14.2l19.069,0.811L346.929,195.036z"/>
			<path style="fill:#74A4E4;" d="M300.574,168.193c-4.365,3.242-10.339,7.511-17.543,15.011
				c-7.204,7.511-26.675,25.87-26.675,25.87s-14.503-8.327-20.795-10.954c-6.293-2.638-22.522-3.051-22.522-3.051
				s1.218-4.661,2.458-5.773c1.059-0.953,4.746-1.017,7.14-1.197l0.35,0.879c0,0,10.543,0.045,11.56-0.093
				c1.006-0.148-2.502-10.999,11.566-16.942c14.068-5.943,30.425-5.424,30.425-5.424l-0.35-2.67c3.75,0.053,1.197-0.233,4.333-0.932
				c3.676-0.805,12.045,1.017,17.416-1.6c5.382-2.617,2.331-3.973,2.331-3.973s3.761-0.508,5.18,2.383
				C306.867,162.61,304.939,164.952,300.574,168.193z"/>
			<path style="fill:#74A4E4;" d="M305.906,165.54l-2.039,1.343c-0.261-0.343-0.417-0.549-0.417-0.549l-0.169,0.935l0,0l0,0
				l-0.259,1.432l-24.053,25.052l-14.197,19.63l2.434,41.836l10.994,6.961c-3.337-16.242,0.061-27.365,4.57-37.916
				c8.599-20.121,22.402-35.601,26.578-40.644l0,0c0,0,3.957-3.965,5.479-4.574c1.521-0.608,3.094,0.862,6.238,1.521
				C321.065,180.568,312.935,176.639,305.906,165.54z"/>
			<path style="fill:#74A4E4;" d="M189.002,189.391l-14.905-1.409c0,0-5.583-10.562-9.64-12.384c-4.057-1.822-30.732,0-30.732,0
				l-1.515-1.451l7.299-1.292l28.2-3.676l2.998,0.794l-0.869,0.794c0,0,0.267,2.413,2.161,7.363c1.43,3.738,2.749,5.268,3.017,5.419
				c1.039,0.586,8.184,1.707,10.409,2.29C186.918,187.407,189.002,189.391,189.002,189.391z"/>
			<polyline style="fill:#74A4E4;" points="309.511,281.239 224.643,296.307 316.393,285.683 			"/>
			<polyline style="fill:#74A4E4;" points="172.521,201.427 120.699,210.628 179.403,205.871 			"/>
			<polyline style="fill:#74A4E4;" points="154.674,235.834 102.852,245.034 161.557,240.277 			"/>
			<polyline style="fill:#74A4E4;" points="308.435,139.556 226.026,152.979 315.318,143.999 			"/>
			<polyline style="fill:#74A4E4;" points="317.231,145.132 271.736,152.542 321.031,147.585 			"/>
			<polyline style="fill:#74A4E4;" points="183.225,207.872 152.178,213.384 187.348,210.534 			"/>
			<polyline style="fill:#74A4E4;" points="319.163,287.269 260.374,297.706 325.011,291.389 			"/>
			<polyline style="fill:#74A4E4;" points="352.2,288.238 293.41,298.675 358.047,292.359 			"/>
			<path style="fill:#74A4E4;" d="M336.339,149.156c0,0-3.88-10.648-11.673-13.116c3.22,2.384,4.919,5.021,5.071,7.354
				c0.204,3.132-4.455,2.628-9.511-2.153c0,0,4.425,9.687,10.525,10.572C336.852,152.698,336.637,149.997,336.339,149.156z"/>
		</g>
		<path style="fill:#002D49;" d="M392.316,217.327c6.886,21.611-1.409,46.909-8.984,54.812c9.153-15.996,9.259-33.656,7.861-44.536
			c-0.879-6.801-3.072-12.119-5.477-16.484c-4.004-7.257-9.503-11.378-14.863-13.73c-13.083-2.161-29.387,6.42-32.078,7.977
			c-3.665,2.108-5.095,5.89-5.265,10.255c5.053-3.612,13.74-2.489,13.74-2.489c10.678,2.341,16.643,8.899,19.365,18.465
			c2.892,10.117,1.218,19.863-3.464,29.154c-4.693,9.354-11.812,16.102-21.876,19.291c-11.748,3.74-23.168-1.483-28.582-12.532
			c-7.585-15.509-0.392-35.531,8.878-43.837c2.68,5.901,5.329,11.738,8.009,17.575c2.066,4.534,2.076,4.534,7.331,7.882
			c-2.299,1.027-6.812-0.752-7.956-3.199c-1.494-3.252-2.924-6.526-4.513-10.064c-3.687,5.848-5.117,11.77-3.856,18.189
			c2.278,11.494,14.164,15.647,23.783,8.358c7.68-5.805,11.335-17.088,9.005-26.007c-1.473-5.604-5.233-9.344-11.526-9.789
			c0,0-0.011,0-0.021,0c-2.045-0.117-4.99,0.392-6.451,1.081c2.309,7.829,5.901,14.609,5.964,14.905
			c0.148,0.657-7.077-0.402-7.903-1.102l-14.937-32.946c-0.911-2.013-0.636-4.354,0.731-6.091c2.055-2.648,5.318-6.886,8.464-8.592
			c1.939-1.038,1.112,0.816,7.013,0.498c3.528-0.191,6.621-0.678,10.043-1.123c-1.314,0.54-2.903,1.176-4.587,1.822
			c-5.678,2.203-13.465,2.585-13.465,2.585s5.985,0.614,11.536-0.551c3.369-0.71,10.784-2.585,15.297-3.729
			c2.543-0.657,5.17-0.975,7.797-0.964c2.67,0.021,5.223,0.074,6.282,0.233c2.489,0.381,4.418,1.282,4.651,1.398
			c-0.254-0.297-2.691-2.934-4.725-3.507c-2.087-0.583-4.704-0.943-7.098-1.155c1.409-0.953,1.875-1.886,1.716-3.496
			c-2.67,2.468-9.153,1.96-13.825,1.451c-10.986-1.218-20.191-5.106-25.043-4.492c-7.903,1.007-29.217,25.044-36.612,38.911
			c-9.471,17.776-8.475,40.425-8.475,40.425s-7.32-14.99-2.776-36.855c1.091,2.383,2.882,3.422,3.888,0.879
			c2.045-5.127,4.333-9.99,6.716-14.524c-2.447,0.424-6.801,1.388-11.176,3.454c0.244-0.223,4.227-3.761,10.276-5.615
			c1.589-0.498,2.924-1.578,3.75-3.019c0.837-1.462,1.684-2.882,2.521-4.259c-2.119,0.286-8.03,1.282-13.973,4.1
			c0.328-0.297,5.668-5.021,13.539-6.865c1.631-0.381,3.04-1.398,3.973-2.786c1.049-1.6,2.087-3.104,3.093-4.523
			c-1.557,0.18-8.708,1.155-15.88,4.566c0,0,6.377-5.848,15.838-7.733c1.706-0.339,3.252-1.229,4.312-2.606
			c1.324-1.737,2.532-3.231,3.549-4.47c2.076-2.532,2.182-6.134,0.222-8.75c-1.557-2.076-3.051-4.153-3.051-4.47
			c0-0.657,6.494-3.835,6.494-3.835s7.447,8.093,13.327,11.748c3.549,2.203,15.509,7.066,25.065,8.136
			c3.994,0.434,13.284,1.271,12.193-5.837c-0.456,0.434-0.975,0.837-1.557,1.186c-0.901,0.53-2.066,0.18-2.511-0.763
			c-1.271-2.797-3.898-8.825-4.958-13.645c-0.148-0.763-0.286-2.553,0.381-2.617c0.625-0.074,2.14,1.462,2.32,1.653
			c-1.314-1.992-3.21-4.238-3.21-4.238c-3.326-4.068-7.373-7.574-12.363-10.392c1.314,2.966,2.235,6.653-1.515,6.346
			c-8.952-0.731-16.335-5.795-17.077-6.324c0.657,0.381,9.407,4.672,14.28,4.629c3.422-0.032,3.443-2.648,2.447-5.593
			c-0.18,0.932-0.795,1.536-2.023,1.547c-3.845,0.011-8.973-4.29-13.253-8.623c-6.897-7.003-10.339-8.475-10.339-8.475
			c3.496-0.985,11.303-0.371,13.941,0.244c1.091,0.244,2.076,0.667,2.977,1.197c-2.49-2.32-5.011-3.401-7.797-3.877
			c-7.288-1.25-21.251-0.572-24.302,3.453c2.659,1.547,5.127,2.882,7.511,4.365c2.49,1.547,4.926,3.157,7.299,4.863
			c3.199,2.331,8.051,7.055,5.763,9.407c-2.087,2.15-11.812-1.759-15.308-0.837l-4.29,4.492l-0.021,0.042
			c-0.201,0.286-0.36,0.551-0.498,0.816l-17.278,4.057c-0.572,0.138-1.081,0.402-1.515,0.763c-2.161-0.212-4.47-0.307-6.843-0.169
			c-12.151,0.71-25.616,5.223-28.073,6.271c-7.945,3.39-13.666,9.799-16.516,15.869c-0.784,1.674-1.653,2.415-3.898,2.723
			c-2.617,0.36-6.356,0.519-7.776,1.388c-0.296,0.18-0.657,0.593-1.017,1.08c-1.345,1.801-3.475,2.807-5.699,2.617l-15.297-1.335
			c-0.636-0.053-1.112-0.561-1.176-1.186c-0.011-0.159-0.042-0.318-0.074-0.456c-0.159-0.551-0.593-0.805-0.742-0.9
			c-4.545-2.882-7.649-8.147-7.553-13.412c0.011-0.943-0.053-2.829-0.275-3.221c-0.307-0.498-1.134-0.54-2.384-0.805
			c-3.687-0.805-11.462-2.309-11.992-2.246c-10.509,1.24-29.885,3.528-38.9,4.661c-0.826,0.106-1.218,1.049-0.742,1.716
			c1.038,1.43,1.981,2.776,2.161,2.892c9.661,5.742,78.785,45.659,78.997,45.871c0.212,0.212-0.138,0.646-0.646,0.646
			c-0.106,0-1.345-0.371-3.157-0.943c-0.042-0.011-0.095-0.021-0.148-0.042c-2.436-0.498-14.884,1.133-15.064,1.218
			c-1.229,0.551-3.04,3.316-3.888,4.407c-10.689-7.077-25.753-7.659-31.866-6.07c-1.578,0.752,6.218,0.413,15.552,3.803
			c3.093,1.134,10.149,5.233,11.759,8.475c0.371,0.646-0.869-0.138-1.038-0.265c-10.509-8.242-24.768-8.507-35.637-2.945
			c-17.024,8.697-23.836,28.275-24.503,43.572c-0.508,11.971,1.684,25.658,10.096,34.906c-11.145-28.9,0.424-48.593,5.424-55.235
			c0.254-0.328,6.504-8.983,17.236-11.6c8.517-2.066,19.206,0.053,23.327,7.733l5.159-0.583l-4.619,1.695l-14.577,6.028
			c-1.271,0.519-2.659,0.636-3.994,0.328c-1.917-0.445-4.979-0.837-7.627,0.191c-6.388,2.49-9.947,9.068-9.661,15.975
			c0.434,10.498,8.242,12.267,13.104,10.943c5.88-1.61,9.598-6.822,11.25-12.268c0.625-2.034,1.589-3.009,3.634-3.485
			c0.35-0.085,0.689-0.169,1.038-0.244c-0.445,2.606-1.525,6.399-4.174,10.541c-2.278,3.57-8.252,7.289-11.092,7.627
			c0,0,6.96,0.922,12.617-7.119c2.203-3.146,3.74-6.875,4.735-9.895c0.371-1.123,1.303-1.97,2.458-2.257
			c5.033-1.223,18.771-4.763,27.643-6.98c-0.113,0.369-0.154,0.498-0.277,0.851c-5.589,2.006-13.278,4.725-16.169,5.695
			c-1.99,0.668-2.553,1.282-2.701,3.273c-0.922,11.78-6.282,20.986-16.632,26.887c-1.674,0.953-3.379,1.727-5.096,2.278
			c0.424-0.074,0.837-0.127,1.24-0.191c0.074-0.021,0.159-0.042,0.244-0.053c4.471-0.932,17.818-5.148,21.876-23.073
			c-0.095,0.901-2.045,15.35-13.475,21.759c10.117-1.621,18.952-3.062,27.12-4.343c1.632-3.093,2.945-6.314,3.994-9.683
			l14.386-2.648c-4.301-5.18-5.901-9.068-5.985-9.269c6.028,7.924,16.272,17.014,19.503,16.611h0.011
			c0,0,49.451-8.168,68.393-11.367c-6.007-19.461,0.826-32.628,1.123-33.19c-3.814,14.429,0.011,26.972,2.723,32.523
			c4.831,10.053,13.369,19.323,25.838,22.512C373.565,312.161,410.759,256.661,392.316,217.327z M347.42,255.135
			c4.884-7.172,6.25-21.791-2.648-26.41c9.63,4.015,8.613,19.63,3.475,26.95c-2.839,4.206-7.331,7.553-12.458,8.168
			c-4.968,0.657-10.7-1.833-12.469-6.716c2.066,4.608,7.585,6.769,12.373,6.017C340.512,262.36,344.782,259.193,347.42,255.135z
			 M318.435,161.371c10.085,0.667,23.412,11.039,24.058,11.547c-0.328-0.381-5.773-6.505-9.969-8.983
			c-0.975-0.583-1.918-1.102-2.807-1.579c3.687,0.583,7.119,1.504,9.058,2.945c6.176,4.576,10.106,10.329,12.077,13.729
			c0.72,1.24,0.456,2.574-0.975,2.426c-8.878-0.89-13.698-3.009-20.138-6.462c-8.613-4.63-15.276-13.676-15.276-13.676
			S316.052,161.297,318.435,161.371z M152.655,277.732c-2.49,0.021-4.036-1.61-4.079-4.259c-0.074-3.528,3.03-7.257,6.123-7.373
			c2.384-0.095,4.184,1.642,4.28,4.153C159.085,273.897,155.875,277.711,152.655,277.732z M278.328,163.903
			c0.773-0.307,1.695,0.18,2.045,1.081c0.36,0.9,0.021,1.896-0.763,2.193c-0.773,0.307-1.695-0.169-2.045-1.081
			C277.205,165.195,277.544,164.21,278.328,163.903z M215.549,192.04c0.254-0.689,0.593-1.515,0.922-1.759
			c1.377-0.996,5.106-1.292,7.935-1.356c2.055-0.064,2.934-1.706,3.729-3.591c1.25-2.966,3.951-6.568,7.67-9.693
			c4.682-3.93,9.047-5.88,15.933-7.691c4.1-1.08,11.431-2.924,19.143-3.22c1.843-0.074,3.507-0.021,5.011,0.095
			c-0.085,0.53-0.053,1.07,0.117,1.61c0.011,0.032,0.021,0.064,0.032,0.085c0.604,1.78,2.553,2.723,4.365,2.257l18.581-4.788
			c1.769-0.456,2.945-2.299,2.49-4.068c0-0.021-0.011-0.053-0.021-0.074c-0.138-0.519-0.403-0.964-0.742-1.335l0.011-0.011
			c0,0,2.881,1.886,1.843,5.074c-0.402,1.261-1.303,1.833-3.019,2.437l-1.218,0.35c-0.466,0.138-0.731,0.625-0.583,1.091
			c0,0,0,0.01,0.011,0.01c0.117,0.413-0.116,0.848-0.519,0.953c-3.39,0.89-16.378,4.29-17.755,4.799
			c-0.805,0.297-1.917,0.932-2.733,1.419c-0.71,0.434-1.568,0.53-2.352,0.286c-2.606-0.826-5.805-1.716-7.426-1.706
			c-5.424,0.021-20.679,4.534-21.632,4.82c1.017-0.159,19.27-3.083,21.908-1.695c0.837,0.445,1.822,1.335,3.072,1.78
			c3.517,1.229,1.928,2.723,1.123,4.206c-4.47,8.221-9.831,19.27-16.102,23.889c-1.187,0.879-6.79-1.758-10.869-5.074l-2.988-2.108
			c-0.53-0.371-1.07-0.72-1.631-1.059c-0.307-0.191-5.985-3.634-10.647-7.415c0.71,1.345,1.737,2.892,3.062,4.301
			c-1.303-0.318-2.638-0.551-3.994-0.667l-12.003-1.038C215.719,193.099,215.369,192.548,215.549,192.04z M248.114,217.825
			c-8.581-4.629-10.53-9.767-10.636-10.085c3.538,3.337,8.92,6.113,13.041,7.935c3.125,1.388,4.64,3.358,3.983,8.136
			c-0.53,3.75-0.953,6.642-1.547,10.668c-1.674,11.335-7.776,21.336-17.257,26.431c-2.606,1.409-5.466,2.437-8.56,3.019
			c13.91-3.263,21.632-15.52,23.062-30.192c0.487-4.905,0.731-7.638,0.805-10.35C251.081,221.087,250.138,218.916,248.114,217.825z
			 M166.924,171.89c0.445-0.042,0.752-0.413,0.784-0.858c0.064-0.9,0.53-1.271,0.53-1.271s-0.116,1.631,0.498,1.716
			c1.632,0.201,9.323,1.663,11.409,2.066c0.297,0.064,0.519,0.318,0.53,0.636c0.032,0.826,0.064,2.405,0.138,3.04
			c0.636,5.424,3.221,8.623,6.028,10.763c0,0-2.977-1.229-11.96-2.405c-1.133-0.148-3.136-4.206-4.693-7.839
			c-1.102-2.596-3.708-4.227-6.526-4.1l-28.614,1.282L166.924,171.89z M212.297,221.543c-0.773-0.138-66.454-37.226-71.539-40.118
			c5.117,2.67,70.141,36.601,71.645,36.538c3.104-2.034,5.848-2.775,5.848-2.775S215.168,217.39,212.297,221.543z M232.669,287.87
			c-5.17-1.123-11.378-8.009-11.759-8.443c0.477,0.36,8.591,6.558,13.285,5.869l56.655-8.867c2.998,0.932,5.329,1.112,5.329,1.112
			L232.669,287.87z M366.965,266.164c-5.011,8.645-13.232,15.816-23.158,17.903c-9.397,2.384-21.155,1.059-27.416-7.045
			c6.695,7.49,17.935,8.369,27.099,5.805c9.556-2.352,17.236-9.058,22.014-17.511c9.534-15.721,11.473-42.205-7.903-51.168
			C378.289,222.232,376.647,249.987,366.965,266.164z"/>
	</g>
</g>
<g id="TEXTS">

		<text transform="matrix(1 0 0 1 132.6918 345.2892)" style="fill:#002D49; font-family:'Sansita-BlackItalic'; font-size:100.3053px;">Cabezas</text>

</g>
</svg>
